<svg xmlns="http://www.w3.org/2000/svg" xmlns:xlink="http://www.w3.org/1999/xlink" viewBox="0 0 2834 2834">
  <defs>
    <style>
      .cls-1 {
        fill: white;
        isolation: isolate;
      }

      .cls-2 {
        
        fill-rule: evenodd;
      }
    </style>
  </defs>
  <g id="basicBody" class="cls-1">
    <path class="cls-2" d="M1984,1270c8.55-1.55,7.36-6.86,13-9,12.56-4.76,46.42-.38,53,4,22.95,52.15,19.24,116.27-3,165h-51c-4.58-2.1-4.45-7.06-11-9l-1,1c-3.76,92.54-59.6,200.68-101,259-13.86,19.53-34.23,36.39-47,56-21.08,32.37-33.57,75-48,112-12.15,31.15-19.44,66.17-28,100-4.25,16.82-1.76,42.33-11,55-7.47,10.25-35.87,18.47-50,21q-.49-88.49-1-177c-103.48,51.65-250.68,102.39-408,64-37.68-9.19-73.94-19.68-107-34l-60-30v129c0,12.62,3.92,39.62-2,48-12.79-5.16-38-8.63-46-19-12.76-16.63-12.82-67.85-20-91-15.47-49.86-30.68-97.39-51-142-15.67-34.39-39.58-56.4-60-85a629.7,629.7,0,0,1-76-141c-14.85-38.91-21.57-81-31-126-6-28.7-8.88-74.7-3-106q3.5-35.49,7-71c20-83.21,44.81-150.73,84-213,23.71-37.67,54.74-66.45,74-104,24-46.78,39.23-99.42,56-153,7.11-22.72,7.31-75,20-91,8.26-10.43,33-13.78,46-19l2,1V844c103.29-54.36,260.7-104.22,417-63,39.69,10.47,77.12,22.69,112,38l47,24V664c13.18,2.64,41.6,9.52,49,19,10,12.79,7.59,39.19,12,57l28,100c14.71,38,33.2,76.24,46,112l21,22,36,48C1935.28,1085.73,1976.63,1172.87,1984,1270Z"/>
  </g>
  <g id="basicBodyShadow_Image" data-name="basicBodyShadow Image">
    <image id="basicBodyShadow_Image-2" data-name="basicBodyShadow Image" width="1235" height="1361" transform="translate(832 664)" xlink:href="assets/svg/basicAll1.png"/>
  </g>
  <g id="basicInside_Image" data-name="basicInside Image">
    <image id="basicInside_Image-2" data-name="basicInside Image" width="1007" height="1007" transform="translate(919 837)" xlink:href="assets/svg/basicAll2.png"/>
  </g>
  <g id="Layer_5" data-name="Layer 5" class="cls-1">
    <path class="cls-2" d="M1777,1114h6v1l-6,7-107,82-204,156c-8.63,2.82-11.68-2.26-19,2,5.63,38.83-14.61,39.93-45,46l-175,393-4-2,175-394c-8-8.35-16.43-12.86-19-27-1.82-10,2.18-12.78-1-19l-6-4c-6.11,1.39-10.59,5-15,2l-185-151v-3l2-1,208,124q.49,7.5,1,15l8,5c9.88-4,16.12-7.13,32-7l27-69,18,8-24,50h1Z"/>
    <path class="cls-2" d="M1441,1332c-1.94,5.68-5.45,9.82-5,15l3-1,4-5C1442.29,1337.44,1443.1,1334.88,1441,1332Z"/>
  </g>
  <g id="basicHandShadow_Image" data-name="basicHandShadow Image">
    <image id="basicHandShadow_Image-2" data-name="basicHandShadow Image" width="614" height="689" transform="translate(1170 1113)" xlink:href="assets/svg/basicAll3.png"/>
  </g>
  <g id="Layer_6" data-name="Layer 6" class="cls-1">
    <path class="cls-2" d="M1378,281c78-.34,158.56-1,224,12,13.78,2.73,49.61-5.67,59,1,23,16.31,16.82,77.88,23,114q10,100,20,200c6.52,35.76,14,89.08,6,130-24,16.71-90.12,8-128,8H1254c-35.57,0-120.91,7.58-135-12-.72-69.75,2.22-133.28,14-194,9.57-49.32,5.67-99.94,15-147,5-25.38,1.65-87.16,18-98,12.34-8.18,23,2.73,38,0,31.33-5.7,77.11-5.7,118-12Z"/>
    <path class="cls-2" d="M1144,1944h416c44.15,0,130.9-8.92,154,12,.43,58.58,1.49,116-7,165q-4,53.49-8,107l-12,157c-6.54,40.32.18,134.12-26,151-4.46,2.87-50.82-1.86-58,0-88.77,22.94-250.92,23.2-346,4-20.23-4.09-85-1.44-91-10-15.49-22-11.33-108.18-17-144q-11-144-22-288c-5.57-35.73-12.22-112.64-1-147Z"/>
  </g>
  <g id="basicStrapShadow_Image" data-name="basicStrapShadow Image">
    <image id="basicStrapShadow_Image-2" data-name="basicStrapShadow Image" width="595" height="2273" transform="translate(1119 280)" xlink:href="assets/svg/basicAll4.png"/>
  </g>
</svg>
