<svg xmlns="http://www.w3.org/2000/svg" xmlns:xlink="http://www.w3.org/1999/xlink" viewBox="0 0 2834 2834">
  <defs>
    <style>
      .cls-1 {
         fill: white;
        isolation: isolate;
      }

      .cls-2 {
        fill-rule: evenodd;
      }
    </style>
  </defs>
  <g id="bodyThree" class="cls-1">
    <path class="cls-2" d="M1134,675c6,6.41,2,35,2,46V851l81-38c46.09-18.23,96.14-25.19,152-35,86-15.1,205.8,14.86,263,39l71,34q.49-88,1-176l62,27c.1,25,7.45,51.25,13,73,17.39,68.1,36.35,144,69,197l28,34,42,66c22.74,38.81,39.7,86.23,52,134q6.49,36,13,72c1.81-14.15,8.47-20,15-29,15.06-.31,41.14-3.26,51,3,42.59,27,45,147.79,4,179-9.81,7.48-46.92,10.15-59,2a277.06,277.06,0,0,0-12-25c-.22,87.72-55.15,196.79-92,252l-43,54-19,45c-25.91,60.1-59.81,143-62,223l-63,27q-.49-87.49-1-175c-98.08,51.63-246.77,100.92-399,64-38.13-9.25-74.55-19.63-108-34l-59-30q-.49,87.49-1,175l-62-27q-5-29-10-58c-17-74.68-35.71-149.76-70-208l-26-31-46-71c-27.93-47.54-45.36-105-59-166l-9-76q.5-29,1-58,2-26,4-52c6.5-34.16,13.59-67.55,24-97,19.74-55.82,42-104,73-148l36-45,19-45c27.51-63.38,59.52-141.06,63-225Z"/>
  </g>
  <g id="bodyThreeShadow_Image" data-name="bodyThreeShadow Image">
    <image id="bodyThreeShadow_Image-2" data-name="bodyThreeShadow Image" width="1230" height="1336" transform="translate(852 674)" xlink:href="assets/svg/bodyThree1.png"/>
  </g>
</svg>
