<svg xmlns="http://www.w3.org/2000/svg" xmlns:xlink="http://www.w3.org/1999/xlink" viewBox="0 0 2834 2834">
  <defs>
    <style>
      .cls-1 {
         fill: white;
        isolation: isolate;
      }

      .cls-2 {
       
        fill-rule: evenodd;
      }
    </style>
  </defs>
  <g id="bodyOne" class="cls-1">
    <path class="cls-2" d="M1717,645l62,31c15,67.27,15.15,138.4,38,197,15.66,40.17,44.2,70.07,59,105,12.27-6.5,24.37-18.15,39-21,8.65,5.78,16.83,5.5,22,15l41-23,61,108-40,22c4.85,9.41,2.57,17.85,1,30l-38,22c13.58,30.91,26.84,70.37,30,109,9.44-2.63,96-2.59,100,1,7.41,7.7,12.37,16.54,20,24,1,47.35,10,106.7-2,151-12.67,4.19-11.19,12.78-19,21l-99,1c-2,40.75-18.19,82.66-32,115l40,23c1.64,11.54.29,22.66,0,30l39,23-2,2-60,104-41-22c-2,7.28-20,17-25,13l-37-21-3,2-32,51c-15.74,26.57-26.6,58.62-35,92q-10,56-20,112c-2.79,14-1,31.52-7,42-21.75,6.9-37.76,26.31-63,28v-3q-.49-20.51-1-41c0-41.2,6.68-101.63-2-138l-5-4c-28.41.43-54.6,23.34-78,33-39.26,16.21-82,24-129,33l-47,3-54,1c-66.83-11.17-122.28-15.38-175-37-19.79-8.12-59.91-36.92-82-31-9.75,29.07-3,105.56-3,143,0,13.49,1.34,30.63-2,41-12.25-.46-61.19-25.35-65-33q-3.49-27-7-54c-10.53-51-15.45-106.43-34-150-26.47-62.16-70-110.1-103-166-35-59.14-55-123.83-70-204-6.51-34.81-12.1-84.48-6-125,4.75-31.56,5.87-62,13-91l18-63-89-52c-.74-34.22,55.55-112.33,72-140,7.31-12.29,14.4-36.93,31-39,12.84-1.61,70.34,45.85,89,48,11.47-29.37,34.69-53.92,47-85,23.54-59.43,25.73-130.82,39-201,10.63-7.11,52.81-33,66-30q.49,68,1,136c0,14.39-3.65,40.67,5,47,11.63,7.32,62.84-23.75,75-29,38.76-16.74,81.53-25.8,128-35l55-4,49-1,61,6c50.74,10.2,96.8,22,137,42,8,4,51.55,27.34,60,22,8.64-5.46,5-33.35,5-47q.49-69,1-138Z"/>
  </g>
  <g id="bodyOneShadow_Image" data-name="bodyOneShadow Image">
    <image id="bodyOneShadow_Image-2" data-name="bodyOneShadow Image" width="1325" height="1388" transform="translate(792 645)" xlink:href="assets/svg/bodyOne1.png"/>
  </g>
</svg>
