<svg xmlns="http://www.w3.org/2000/svg" xmlns:xlink="http://www.w3.org/1999/xlink" viewBox="0 0 2834 2834">
  <defs>
    <style>
      .cls-1 {
         fill: white;
        isolation: isolate;
      }

      .cls-2 {
       
        fill-rule: evenodd;
      }
    </style>
  </defs>
  <g id="bodyTwo" class="cls-1">
    <path class="cls-2" d="M1129,655l8,1c-.22,51.4-7.76,136.3,3,180l3,1c10.58,5.71,50.22-16.71,61-22,58.74-28.8,110.49-32.94,187-46l61,1,58,5c39.59,8,76.86,17.39,111,31,22.41,8.94,54.63,37,81,31,18-40.25-7.32-134.31,5-182,21.55.69,48.19,19.92,64,30,13.15,64.68,14.91,130.92,35,188,13.29,37.77,34.55,69.35,55,100l33,48,21-12-14-24c7.14-7.69,53.46-33.78,60-30l33,46c13.08,20.94,21.94,45.32,32,69l-58,32-14-24-2,2-19,11c23,49.47,41.89,103.24,51,167,11.89-8.93,23.07-10.5,45-11h31c31.7,18.45,31.91,143.41,9,174-7.18,9.59-51,13.92-70,9-6.49-1.68-10.43-7.27-15-11-3.13,66.54-33.74,118-51,170l22,12v-2l14-23,57,33c-17.9,41.38-36.41,91.1-69,118l-56-33,14-25-22-11c-29,55.52-71.42,96.86-92,164l-24,124c-3.19,16-1,37.56-8,50-15.8,5.17-46.68,30.72-63,27V1888c0-14.91,3.34-40-6-46-10.54-5.54-49.51,17-61,22-36.73,15.92-76.58,28.07-121,38l-64,7-65-1-58-5c-37.59-7.59-73.46-16.09-106-29-20.87-8.28-61.71-37.22-84-32-17.85,41.63,7.51,133.65-5,182-21.76-.7-47.89-20-64-30-14.8-77.49-19.52-155.3-47-218-20.41-46.57-55-84.52-81-126a627.74,627.74,0,0,1-74-170c-8.21-30.29-9.9-62.37-15-96-4-26.68-2.84-63.89,1-89l6-58c17.42-81,44.34-147.87,82-208,26-41.5,60.6-79.42,81-126,18.48-42.2,26.52-93.87,37-145,4.55-22.21,1.7-56.44,12-75Z"/>
  </g>
  <g id="bodyTwoShadow_Image" data-name="bodyTwoShadow Image">
    <image id="bodyTwoShadow_Image-2" data-name="bodyTwoShadow Image" width="1232" height="1371" transform="translate(853 654)" xlink:href="assets/svg/bodyTwo1.png"/>
  </g>
</svg>
