<svg xmlns="http://www.w3.org/2000/svg" xmlns:xlink="http://www.w3.org/1999/xlink" viewBox="0 0 2834 2834">
  <defs>
    <style>
      .cls-1 {
         fill: white;
        isolation: isolate;
      }

      .cls-2 {
        
        fill-rule: evenodd;
      }
    </style>
  </defs>
  <g id="handOne" class="cls-1">
    <path class="cls-2" d="M1800,1059l4,3-2,3-244,189c-32.47,24.52-57,53.32-99,66,8.23,39.49-8,53.35-41,60l-90,411-6-2q31-147,62-294c5.81-23.71,29-103.82,25-124-33.78-9.44-16.9-47.78-24-54-6.32-5.53-19.13-2.18-25-6l-183-165,3-4,206,140c4.85,5.22,3.08,15.48,13,23,8.94-3.19,13.59-6.94,27-7,1.2-15,8.87-73,16-82l14,3c-1.83,12.9-20.32,78.32-18,81l12,7c3.7-5.19,3.43-9.28,7-16l81-54Z"/>
  </g>
  <g id="handOneShadow_Image" data-name="handOneShadow Image">
    <image id="handOneShadow_Image-2" data-name="handOneShadow Image" width="645" height="744" transform="translate(1177 1058)" xlink:href="assets/svg/handOne1.png"/>
  </g>
</svg>
