<svg xmlns="http://www.w3.org/2000/svg" xmlns:xlink="http://www.w3.org/1999/xlink" viewBox="0 0 2834 2834">
  <defs>
    <style>
      .cls-1 {
        fill: white;
        isolation: isolate;
      }

      .cls-2 {
        
        fill-rule: evenodd;
      }
    </style>
  </defs>
  <g id="strapOne" class="cls-1">
    <path class="cls-2" d="M1327,280a415.3,415.3,0,0,1,60,4c12.86,1.86,22.79-6.75,41,0,6.94,2.57,21.46-4.92,33-4l12,4c4.58-1.11,18.86-8,29-4l7,5,9-5c39-6.75,86.51,7.94,114,0,30.84-8.91,74.52,34.44,51,49l2,3c11.55,4.29,2.47,11.24,4,18,1.15,5.07,10.72,7.21,9,17q-2,6-4,12c1.11,5.19,5.48,7.46,6,15l-6,7c1.59,4.74,6.59,11.77,5,19q-2,5.5-4,11c1.75,4.17,7.84,4.46,7,13q-2,7.5-4,15,2.51,7.5,5,15c2.4,10.64-3.52,21.39-2,31,.63,4,6,9.23,5,16l-4,13c3.07,12.4,7,30.35,9,44,1,7.35-5,7-5,12,0,10.51,4.17,20.75,6,28q-1,9-2,18c.48,6.31,3,19.63,4,27,8.88,68.63-7.76,90.61-65,77-13.17-3.13-15.52,13.39-33-1-7.27,2.65-12.45,8.12-25,6l-16-4c-22.56,6-40.57,6.45-64,0l-18,7c-10.27,2.25-16.31-4.63-23-6-13.49-2.77-25.4,8.66-37-1-10,5.29-18.24,4.62-30,1l-19,5-17-5c-5.69,1.14-11.12,7.26-22,5l-17-4c-3.57,1.11-7,7-14,5-3.91-1.11-5.44-7.68-12-6-18.68,4.8-42.1,5-60,0l-26,4c-4.59-1-7.86-5.27-15-4-5.4,1-14.33,5.49-23,3-3.73-1.07-7-6.14-13-5l-16,6-30-9c-.42-40.69,5.34-71.87,10-101,.94-5.88-3.86-5-5-8v-3c-1-8.63,4.3-12.32,5-18q-1-11.5-2-23c2.22-9.79,7.78-31.88,9-40,1-6.82-6.54-8.52-5-18,5.4-33.24,9.11-65.27,15-102,6.64-41.43-3.9-92.84,18-128,10.16-1.07,9.53-7,17-9h26c3.48-1.46,2.36-4.08,9-5l8,7c8-3.76,22-10.35,36-7l9,3c7.48-.8,15-6.2,26-4C1305.52,283.1,1315.76,285.94,1327,280Z"/>
    <path class="cls-2" d="M1142,1942c10.47.25,14,4.63,21,6,10.08,2,11.51-6.31,22-6,7.13.21,10.55,4.91,15,6l16-5c8.48-.11,12.7,6.16,18,7l13-6c10.61-2.31,14.68,5.08,22,7,9.31-10.39,17.85-2.37,28,0,13.19,3.07,15.09-13.54,34,1,6.4-2.12,13.15-7.78,25-5l12,4c5-1.08,10.33-7.62,20-5l8,5,13-5c8.1-1.09,13.36,4.78,18,6l12-4c11.85-3.08,17,2.61,24,4,14.46,2.87,11.43-13.42,36,0l13-8c11-3.12,16.76,5.48,23,6l12-6c12.33-3,17.83,4.65,25,6l20-5c7.73-1,16.59,4.57,22,7,11-12.36,21.84-4.58,36-1,8.11-10.32,15.13-1.72,24-2,4.54-.15,15-4.9,23-2,19,6.93,23.12,59.19,17,89-13.34,64.93-2,129.4-16,188l3,12c-1.93,12-6.88,31.18-6,43,.44,5.91,5.3,14.15,3,23l-7,9q2,7.5,4,15c.1,7.24-4.19,12-5,16-1.12,5.47,5,6.57,6,10,2.23,7.76-4.71,12.43-6,17-5.45,19.29,8.42,15.2-6,37,7.26,12.66,1,16-2,27q2,7,4,14c-.56,9.27-6.42,12.39-9,19,6.53,10.33,2.06,17-5,24,17.7,21.8-11.63,50-27,59-30.3-4.87-74.18-6.1-108,1-11.87,2.49-33-9.19-39-6-12.24,7.16-24.16,2.87-36-1-7.82,12.57-27.5,3.24-39,0-10.6,14.12-28.71-3.55-43,1-2.76.88-5.23,5.62-10,6-5.86.46-13-5-17-6l-28,4-20-6-15,5c-8.7,1.17-17.71-4.37-24-5l-12,4c-13.17,2.11-23-5.5-32-8l-6,7c-8.73-.48-7.19-4.5-12-6l-22,1c-6.42-1.71-14.75-10.08-21-14-.71-8.58-4.51-10.39-6-18-4.19-21.32-.93-42.4-3-60-2.15-18.32-6.31-36-8-55-2.15-24.12,2.39-48.8-2-76s-7-53.13-10-77l3-21c-5-19.78-6.84-17-1-37l-6-18q.49-11,1-22c-1.27-6.54-5.45-12.38-4-22q1-9,2-18c-1.13-4.94-5.8-10.44-4-19l5-9-6-24c-3.12-17.16-7.35-77.86-2-98C1129.3,1951,1135.88,1946.46,1142,1942Z"/>
  </g>
  <g id="strapOneShadow_Image" data-name="strapOneShadow Image">
    <image id="strapOneShadow_Image-2" data-name="strapOneShadow Image" width="595" height="2274" transform="translate(1119 280)" xlink:href="assets/svg/strapOne1.png"/>
  </g>
</svg>
