<svg xmlns="http://www.w3.org/2000/svg" xmlns:xlink="http://www.w3.org/1999/xlink" viewBox="0 0 2835 2835">
  <defs>
    <style>
      .cls-1 {
        fill: white;
        isolation: isolate;
      }

      .cls-2 {
        fill-rule: evenodd;
      }
    </style>
  </defs>
  <g id="strapTwo" class="cls-1">
    <path class="cls-2" d="M1381,363l84,2c45.11-2,102.39,20,140,27,5.86-13.39,19.26-1.61,26,4,39.86-18.65,38.92,14.66,46,48,11.63,54.78,5.86,132.86,14,204,1.68,14.68.69,91.17-3,94l-181,1-298-3c-25-2-55,5.12-75-1q-.49-37-1-74c-2.41-31-6.24-90.82,4-137,3.5-15.77,1.45-46,5-62,5.57-25.07,1.55-61,18-74,7.83-6.2,24.47,3.1,35,0,3.24-18.51,17.94-4.9,25-1,37.62-12.25,76.81-19.09,112-24Z"/>
    <path class="cls-2" d="M1676,1946c6.18.39,9.2-.38,15,3v101c-1.33,55.55-2,113.89-9,158-3.6,22.53-5.26,80.66-25,90-9,4.93-19.29-1.4-26-5-5.94,4.4-10.51,7.92-18,11-4.36-1.9-6-2.69-8-7-65.72,11.61-147.32,39.89-224,29l-100-12-64-16c-1.74,7.89-8.71,9.77-15,8-2.57,3.09-7-7.29-8-10-11.42-.46-17.1-.37-27,4-25-11.71-24.89-77.49-29-113-5.3-45.78-4.49-103.44-5-136q.49-50.49,1-101c24-5.84,59.66-1.73,89-1l280-2Z"/>
  </g>
  <g id="strapTwoShadow_Image" data-name="strapTwoShadow Image">
    <image id="strapTwoShadow_Image-2" data-name="strapTwoShadow Image" width="560" height="1963" transform="translate(1132 363)" xlink:href="assets/svg/strapTwo1.png"/>
  </g>
</svg>
